<?xml version="1.0" encoding="utf-8"?>
<?xml-stylesheet type="text/xsl" href="rss1.xsl"?>
<rss version="2.0" xmlns:atom="http://www.w3.org/2005/Atom" xmlns:content="http://purl.org/rss/1.0/modules/content/" xmlns:dc="http://purl.org/dc/elements/1.1/" xmlns:media="http://search.yahoo.com/mrss/">
<channel>
 <title>Getty</title>
 <link>http://www.gettyimg.com/</link>
 <atom:link href="http://www.gettyimg.com/" rel="self" type="application/rss+xml" />

 
                <item>
                <title><![CDATA[【BLU-RAY】BD REMUX - Korn Live at Montreux 2004 1080i BluRay REMUX MPEG2 TrueHD.5.1-SiGLA]]></title>
                <link><![CDATA[https://sharemania.us/threads/korn-live-at-montreux-2004-1080i-bluray-remux-mpeg2-truehd-5-1-sigla.242818/]]></link>
                <description><![CDATA[<article>
<blockquote class="messageText SelectQuoteContainer ugc baseHtml">
<div style="text-align: center"><img src="https://ptpimg.me/2d9u06.jpg" class="bbCodeImage LbImage" alt="[​IMG]" data-url="https://ptpimg.me/2d9u06.jpg" style="">​</div><br>
<img src="https://ptpimg.me/2bf4c4.png" class="bbCodeImage LbImage" alt="[​IMG]" data-url="https://ptpimg.me/2bf4c4.png" style=""><br>
<br>
This concert from Montreux in 2004 is their only performance at the festival to date. It was to be one of the last shows to feature the band's original line-up with guitarist Brian Welch leaving the group a few months later. Korn transforms the normally reserved Montreux crowd into a seething, rocking mass with the largest (&amp; probably the first!) mosh pit ever seen in the famous Stravinski Auditorium.<br>
<br>
1. Right Now<br>
2. Break Some Off<br>
3. Got The Life<br>
4. Here To Stay<br>
5. Falling Away From Me<br>
6. Blind<br>
7. Shoots And Ladders<br>
8. One<br>
9. Freak On A Leash<br>
10. A.D.I.D.A.S.<br>
11. Dead Bodies Everywhere<br>
12. Did My Time<br>
13. Another Brick In The Wall<br>
14. F***t<br>
15. Somebody Someone<br>
16. Y'All Want A Single<br>
<br>
<div style="text-align: left">
<div class="bbCodeBlock bbCodeCode">
<div class="type">Code:</div>
<pre>General
Unique ID                                : 89966221235607547162796424736145155095 (0x43AEDD2B925F0EA4B6C63A6D846C2417)
Complete name                            : Korn.Live.at.Montreux.2004.1080i.BluRay.REMUX.MPEG2.TrueHD.5.1-SiGLA.mkv
Format                                   : Matroska
Format version                           : Version 4
File size                                : 19.1 GiB
Duration                                 : 1 h 14 min
Overall bit rate mode                    : Variable
Overall bit rate                         : 36.5 Mb/s
Movie name                               : Korn Live at Montreux (2004)
Writing application                      : mkvmerge v82.0 ('SiGLA') 64-bit
Writing library                          : libebml v1.4.5 + libmatroska v1.7.1
Cover                                    : Yes
Attachments                              : cover.jpg
IMDb                                     : name/nm1241622
TMDB                                     : movie/15091
TVDB                                     : 63346

Video
ID                                       : 1
ID in the original source medium         : 4113 (0x1011)
Format                                   : MPEG Video
Format version                           : Version 2
Format profile                           : Main@High
Format settings                          : BVOP
Format settings, BVOP                    : Yes
Format settings, Matrix                  : Default
Format settings, picture structure       : Frame
Codec ID                                 : V_MPEG2
Codec ID/Info                            : MPEG 1 or 2 Video
Duration                                 : 1 h 14 min
Bit rate mode                            : Variable
Bit rate                                 : 25.9 Mb/s
Maximum bit rate                         : 27.0 Mb/s
Width                                    : 1 920 pixels
Height                                   : 1 080 pixels
Display aspect ratio                     : 16:9
Frame rate mode                          : Constant
Frame rate                               : 25.000 FPS
Standard                                 : PAL
Color space                              : YUV
Chroma subsampling                       : 4:2:0
Bit depth                                : 8 bits
Scan type                                : Interlaced
Scan order                               : Top Field First
Compression mode                         : Lossy
Bits/(Pixel*Frame)                       : 0.499
Time code of first frame                 : 00:00:00:00
Time code source                         : Group of pictures header
Stream size                              : 13.5 GiB (71%)
Language                                 : English
Default                                  : Yes
Forced                                   : No
Color primaries                          : BT.709
Transfer characteristics                 : BT.709
Matrix coefficients                      : BT.709
Original source medium                   : Blu-ray

Audio #1
ID                                       : 2
ID in the original source medium         : 4353 (0x1101)
Format                                   : MLP FBA
Format/Info                              : Meridian Lossless Packing FBA
Commercial name                          : Dolby TrueHD
Codec ID                                 : A_TRUEHD
Duration                                 : 1 h 14 min
Bit rate mode                            : Variable
Bit rate                                 : 4 474 kb/s
Maximum bit rate                         : 5 148 kb/s
Channel(s)                               : 6 channels
Channel layout                           : L R C LFE Ls Rs
Sampling rate                            : 48.0 kHz
Frame rate                               : 1 200.000 FPS (40 SPF)
Bit depth                                : 24 bits
Compression mode                         : Lossless
Stream size                              : 2.34 GiB (12%)
Title                                    : Dolby TrueHD Audio / 5.1 / 48 kHz / 4474 kbps / 24-bit (AC3 Embedded: 5.1 / 48 kHz / 448 kbps)
Language                                 : English
Default                                  : Yes
Forced                                   : No
Original source medium                   : Blu-ray

Audio #2
ID                                       : 3
ID in the original source medium         : 4354 (0x1102)
Format                                   : DTS XLL
Format/Info                              : Digital Theater Systems
Commercial name                          : DTS-HD Master Audio
Codec ID                                 : A_DTS
Duration                                 : 1 h 14 min
Bit rate mode                            : Variable
Bit rate                                 : 5 088 kb/s
Channel(s)                               : 6 channels
Channel layout                           : C L R Ls Rs LFE
Sampling rate                            : 48.0 kHz
Frame rate                               : 93.750 FPS (512 SPF)
Bit depth                                : 24 bits
Compression mode                         : Lossless
Stream size                              : 2.66 GiB (14%)
Title                                    : DTS-HD Master Audio / 5.1 / 48 kHz / 5088 kbps / 24-bit (DTS Core: 5.1 / 48 kHz / 1509 kbps / 24-bit)
Language                                 : English
Default                                  : No
Forced                                   : No
Original source medium                   : Blu-ray

Audio #3
ID                                       : 4
Format                                   : FLAC
Format/Info                              : Free Lossless Audio Codec
Codec ID                                 : A_FLAC
Duration                                 : 1 h 14 min
Bit rate mode                            : Variable
Bit rate                                 : 1 002 kb/s
Channel(s)                               : 2 channels
Channel layout                           : L R
Sampling rate                            : 48.0 kHz
Frame rate                               : 11.719 FPS (4096 SPF)
Bit depth                                : 16 bits
Compression mode                         : Lossless
Stream size                              : 537 MiB (3%)
Title                                    : English 2.0ch FLAC @ 1002 kbps
Writing library                          : libFLAC 1.2.1 (UTC 2007-09-17)
Language                                 : English
Default                                  : No
Forced                                   : No

Menu
00:00:00.000                             : Right Now
00:04:20.120                             : Break Some Off
00:07:09.320                             : Got The Life
00:11:42.640                             : Here To Stay
00:16:32.080                             : Falling Away From Me
00:21:08.400                             : Blind
00:26:22.000                             : Shoots And Ladders
00:30:53.000                             : One
00:31:56.360                             : Freak On A Leash
00:36:08.200                             : Improvisation, A.D.I.D.A.S.
00:40:13.640                             : Dead Bodies Everywhere
00:46:05.120                             : Did My Time
00:50:15.280                             : Another Brick In The Wall
00:56:49.800                             : Faget
01:02:32.360                             : Somebody Someone
01:08:18.080                             : Y'All Want A Single
</pre>
</div></div>
<div class="bbCodeBlock bbCodeVfcHH HiddenContent">
<div class="attribution type">Hidden Content:</div>
<blockquote>You must either reply or click 'Like' to see the hidden information contained here.</blockquote>
</div>
<div class="messageTextEndMarker">&nbsp;</div>
</blockquote>
</article>]]></description>
                <author><![CDATA[-C.A.A]]></author>
                </item>

                </channel></rss>